# xmcd CD database file
#
# Track frame offsets:
#	150
#	16600
#	40485
#	67098
#	83113
#	105734
#	130206
#	143454
#
# Disc length: 2209 seconds
#
# Revision: 0
# Processed by: cddbd v1.4PL0 Copyright (c) Steve Scherf et al.
# Submitted via: CDex 1.50Beta7
#
DISCID=63089f08
DTITLE=Yana - Angel Eyes
DYEAR=2002
DGENRE=Jazz
TTITLE0=Aqyu De Beber
TTITLE1=Angel Eyes
TTITLE2=The man I Love
TTITLE3=Sunny
TTITLE4=Fly Me To The Moon
TTITLE5=Soul Eyes
TTITLE6=Summer time
TTITLE7=Unchain My Heart
EXTD=YEAR: 2002
EXTT0=
EXTT1=
EXTT2=
EXTT3=
EXTT4=
EXTT5=
EXTT6=
EXTT7=
PLAYORDER=
